<svg width="20" height="20" viewBox="0 0 20 20" fill="none" xmlns="http://www.w3.org/2000/svg">
<path d="M0.00012207 2.5C0.00012207 1.83696 0.263514 1.20107 0.732355 0.732233C1.2012 0.263392 1.83708 0 2.50012 0L17.5001 0C18.1632 0 18.799 0.263392 19.2679 0.732233C19.7367 1.20107 20.0001 1.83696 20.0001 2.5L20.0001 17.5C20.0001 18.163 19.7367 18.7989 19.2679 19.2678C18.799 19.7366 18.1632 20 17.5001 20L2.50012 20C1.83708 20 1.2012 19.7366 0.732355 19.2678C0.263514 18.7989 0.00012207 18.163 0.00012207 17.5L0.00012207 2.5ZM11.1626 8.235L8.30012 8.59375L8.19762 9.06875L8.76012 9.1725C9.12762 9.26 9.20012 9.3925 9.12012 9.75875L8.19762 14.0937C7.95512 15.215 8.32887 15.7425 9.20762 15.7425C9.88887 15.7425 10.6801 15.4275 11.0389 14.995L11.1489 14.475C10.8989 14.695 10.5339 14.7825 10.2914 14.7825C9.94762 14.7825 9.82262 14.5413 9.91137 14.1163L11.1626 8.235ZM10.0001 6.875C10.3316 6.875 10.6496 6.7433 10.884 6.50888C11.1184 6.27446 11.2501 5.95652 11.2501 5.625C11.2501 5.29348 11.1184 4.97554 10.884 4.74112C10.6496 4.5067 10.3316 4.375 10.0001 4.375C9.6686 4.375 9.35066 4.5067 9.11624 4.74112C8.88182 4.97554 8.75012 5.29348 8.75012 5.625C8.75012 5.95652 8.88182 6.27446 9.11624 6.50888C9.35066 6.7433 9.6686 6.875 10.0001 6.875Z" fill="white"/>
</svg>
