<svg width="18" height="19" viewBox="0 0 18 19" fill="none" xmlns="http://www.w3.org/2000/svg">
<path d="M3.375 9.44838C4.41053 9.44838 5.25 8.59099 5.25 7.53335C5.25 6.47571 4.41053 5.61832 3.375 5.61832C2.33947 5.61832 1.5 6.47571 1.5 7.53335C1.5 8.59099 2.33947 9.44838 3.375 9.44838Z" fill="white"/>
<path d="M6.75 6.38433C7.78553 6.38433 8.625 5.52694 8.625 4.46929C8.625 3.41165 7.78553 2.55426 6.75 2.55426C5.71447 2.55426 4.875 3.41165 4.875 4.46929C4.875 5.52694 5.71447 6.38433 6.75 6.38433Z" fill="white"/>
<path d="M11.25 6.38433C12.2855 6.38433 13.125 5.52694 13.125 4.46929C13.125 3.41165 12.2855 2.55426 11.25 2.55426C10.2145 2.55426 9.375 3.41165 9.375 4.46929C9.375 5.52694 10.2145 6.38433 11.25 6.38433Z" fill="white"/>
<path d="M14.625 9.44838C15.6605 9.44838 16.5 8.59099 16.5 7.53335C16.5 6.47571 15.6605 5.61832 14.625 5.61832C13.5895 5.61832 12.75 6.47571 12.75 7.53335C12.75 8.59099 13.5895 9.44838 14.625 9.44838Z" fill="white"/>
<path d="M13.0047 11.6392C12.3522 10.8579 11.8047 10.1914 11.1447 9.4101C10.7997 8.99645 10.3572 8.5828 9.83224 8.39896C9.74974 8.36832 9.66724 8.34534 9.58474 8.33002C9.39724 8.29938 9.19474 8.29938 8.99974 8.29938C8.80474 8.29938 8.60224 8.29938 8.40724 8.33768C8.32474 8.353 8.24224 8.37598 8.15974 8.40662C7.63474 8.59046 7.19974 9.00411 6.84724 9.41776C6.19474 10.1991 5.64724 10.8655 4.98724 11.6469C4.00474 12.6503 2.79724 13.7611 3.02224 15.3161C3.23974 16.0974 3.78724 16.8711 4.76974 17.0932C5.31724 17.2081 7.06474 16.7562 8.92474 16.7562H9.05974C10.9197 16.7562 12.6672 17.2005 13.2147 17.0932C14.1972 16.8711 14.7447 16.0897 14.9622 15.3161C15.1947 13.7534 13.9872 12.6427 13.0047 11.6392Z" fill="white"/>
</svg>
