<svg width="30" height="31" viewBox="0 0 30 31" fill="none" xmlns="http://www.w3.org/2000/svg">
<path d="M5.81602 15.1769C7.50583 15.1769 8.87569 13.7778 8.87569 12.0519C8.87569 10.326 7.50583 8.92688 5.81602 8.92688C4.12621 8.92688 2.75635 10.326 2.75635 12.0519C2.75635 13.7778 4.12621 15.1769 5.81602 15.1769Z" fill="#333333"/>
<path d="M11.3233 10.1769C13.0132 10.1769 14.383 8.77777 14.383 7.05188C14.383 5.32599 13.0132 3.92688 11.3233 3.92688C9.63353 3.92688 8.26367 5.32599 8.26367 7.05188C8.26367 8.77777 9.63353 10.1769 11.3233 10.1769Z" fill="#333333"/>
<path d="M18.6666 10.1769C20.3564 10.1769 21.7263 8.77777 21.7263 7.05188C21.7263 5.32599 20.3564 3.92688 18.6666 3.92688C16.9768 3.92688 15.6069 5.32599 15.6069 7.05188C15.6069 8.77777 16.9768 10.1769 18.6666 10.1769Z" fill="#333333"/>
<path d="M24.1739 15.1769C25.8637 15.1769 27.2336 13.7778 27.2336 12.0519C27.2336 10.326 25.8637 8.92688 24.1739 8.92688C22.4841 8.92688 21.1143 10.326 21.1143 12.0519C21.1143 13.7778 22.4841 15.1769 24.1739 15.1769Z" fill="#333333"/>
<path d="M21.5304 18.7519C20.4656 17.4769 19.5722 16.3894 18.4952 15.1144C17.9322 14.4394 17.2101 13.7644 16.3534 13.4644C16.2188 13.4144 16.0842 13.3769 15.9496 13.3519C15.6436 13.3019 15.3131 13.3019 14.9949 13.3019C14.6767 13.3019 14.3463 13.3019 14.0281 13.3644C13.8935 13.3894 13.7588 13.4269 13.6242 13.4769C12.7675 13.7769 12.0577 14.4519 11.4824 15.1269C10.4177 16.4019 9.52425 17.4894 8.44724 18.7644C6.84397 20.4019 4.87354 22.2144 5.24071 24.7519C5.59563 26.0269 6.48905 27.2894 8.09232 27.6519C8.98574 27.8394 11.8374 27.1019 14.8726 27.1019H15.0928C18.128 27.1019 20.9797 27.8269 21.8731 27.6519C23.4763 27.2894 24.3698 26.0144 24.7247 24.7519C25.1041 22.2019 23.1337 20.3894 21.5304 18.7519Z" fill="#333333"/>
</svg>
