<svg width="8" height="16" viewBox="0 0 8 16" fill="none" xmlns="http://www.w3.org/2000/svg">
<path d="M6.25591 15.0049C6.09581 15.0054 5.93762 14.9701 5.79297 14.9014C5.64831 14.8328 5.52087 14.7327 5.42 14.6083L0.243794 8.17826C0.0861697 7.9865 0 7.74597 0 7.49774C0 7.24951 0.0861697 7.00898 0.243794 6.81722L5.60219 0.387147C5.7841 0.168292 6.04549 0.0306621 6.32887 0.00453481C6.61225 -0.0215924 6.8944 0.0659229 7.11326 0.247828C7.33211 0.429733 7.46974 0.691128 7.49587 0.974508C7.522 1.25789 7.43448 1.54004 7.25258 1.7589L2.46217 7.5031L7.09182 13.2473C7.22287 13.4046 7.30612 13.5962 7.33171 13.7993C7.3573 14.0024 7.32417 14.2086 7.23623 14.3935C7.14829 14.5784 7.00923 14.7343 6.8355 14.8426C6.66177 14.9509 6.46064 15.0072 6.25591 15.0049Z" fill="white"/>
</svg>
