<svg width="28" height="28" viewBox="0 0 28 28" fill="none" xmlns="http://www.w3.org/2000/svg">
<path d="M19.1226 3.55188C22.5843 3.55188 25.3896 6.36438 25.3896 10.3019C25.3896 18.1769 16.8436 22.6769 13.995 24.3644C11.7411 23.029 5.92302 19.9353 3.5894 14.8019H8.9426L10.0069 13.0514L13.4252 18.6764L15.7794 14.8019H19.6923V12.5519H14.4895L13.4252 14.3024L10.0069 8.67738L7.65272 12.5519H2.83963C2.68466 11.8353 2.60034 11.0849 2.60034 10.3019C2.60034 6.36438 5.449 3.55188 8.86739 3.55188C10.9868 3.55188 12.8555 4.67688 13.995 5.80188C15.1344 4.67688 17.0032 3.55188 19.1226 3.55188Z" fill="#333333"/>
</svg>
