<svg width="31" height="30" viewBox="0 0 31 30" fill="none" xmlns="http://www.w3.org/2000/svg">
<path d="M2.85376 20.1144C2.85376 23.7877 5.96829 26.7602 9.81715 26.7602C13.666 26.7602 16.7805 23.7877 16.7805 20.1144V12.2602H2.85376V20.1144ZM9.81715 22.5311C8.06997 22.5311 6.65197 21.7215 6.65197 20.7186H12.9823C12.9823 21.7215 11.5643 22.5311 9.81715 22.5311ZM12.9823 15.8852C13.6787 15.8852 14.2484 16.429 14.2484 17.0936C14.2484 17.7581 13.6787 18.3019 12.9823 18.3019C12.286 18.3019 11.7163 17.7581 11.7163 17.0936C11.7163 16.429 12.286 15.8852 12.9823 15.8852ZM6.65197 15.8852C7.34831 15.8852 7.91804 16.429 7.91804 17.0936C7.91804 17.7581 7.34831 18.3019 6.65197 18.3019C5.95563 18.3019 5.3859 17.7581 5.3859 17.0936C5.3859 16.429 5.95563 15.8852 6.65197 15.8852Z" fill="#333333"/>
<path d="M14.2483 3.80188V11.0519H18.0465V14.0727C18.0465 13.0698 19.4645 12.2602 21.2117 12.2602C22.9589 12.2602 24.3769 13.0698 24.3769 14.0727H18.0465V17.0935V17.5648C18.9961 18.024 20.0722 18.3019 21.2117 18.3019C25.0605 18.3019 28.1751 15.3294 28.1751 11.656V3.80188H14.2483ZM18.0465 9.94021C17.3502 9.94021 16.7804 9.39646 16.7804 8.73188C16.7804 8.0673 17.3502 7.52355 18.0465 7.52355C18.7428 7.52355 19.3126 8.0673 19.3126 8.73188C19.3126 9.40855 18.7428 9.94021 18.0465 9.94021ZM24.3769 9.94021C23.6805 9.94021 23.1108 9.39646 23.1108 8.73188C23.1108 8.0673 23.6805 7.52355 24.3769 7.52355C25.0732 7.52355 25.6429 8.0673 25.6429 8.73188C25.6429 9.40855 25.0732 9.94021 24.3769 9.94021Z" fill="#333333"/>
</svg>
