<svg width="83" height="121" viewBox="0 0 83 121" fill="none" xmlns="http://www.w3.org/2000/svg">
<path d="M41.4999 39.7393L15.0908 54.029V69.418H22.7201V58.4259L41.4999 48.2908L51.8749 54.029L33.8916 64.1968L41.2484 68.3188L67.909 54.029L41.4999 39.7393Z" fill="#606062"/>
<path d="M22.7201 74.9512H15.0908V89.5158L41.4999 104.127L67.909 89.5391L60.3635 84.8441L41.4999 95.0724L22.7201 84.8441V74.9512Z" fill="#606062"/>
<path d="M7.54545 69.4182H0V45.0212L41.7515 22.1333L75.4545 40.4939V4.02424L83 0V69.4182H75.203V49.0455L41.7515 30.6848L7.54545 49.5485V69.4182Z" fill="#81CAA8"/>
<path d="M7.54545 74.9512H0V98.3421L41.7515 120.978L83 98.3421V74.9512H75.4545V94.0663L41.2485 112.427L7.54545 93.8148V74.9512Z" fill="#81CAA8"/>
</svg>
