<svg width="29" height="29" viewBox="0 0 29 29" fill="none" xmlns="http://www.w3.org/2000/svg">
<path d="M25.4576 0H3.39241C1.65871 0 0.240234 1.41848 0.240234 3.15217V25.2174C0.240234 26.9527 1.65871 28.3696 3.39241 28.3696H14.425V17.337H11.2728V13.4361H14.425V10.2052C14.425 6.79451 16.3352 4.39886 20.3606 4.39886L23.2022 4.40201V8.50772H21.3157C19.749 8.50772 19.1533 9.68348 19.1533 10.7741V13.4377H23.2007L22.3055 17.337H19.1533V28.3696H25.4576C27.1913 28.3696 28.6098 26.9527 28.6098 25.2174V3.15217C28.6098 1.41848 27.1913 0 25.4576 0Z" fill="#5A7770"/>
</svg>
