<svg width="20" height="18" viewBox="0 0 20 18" fill="none" xmlns="http://www.w3.org/2000/svg">
<path d="M1.66444 1.45755C1.11907 1.99213 0.705341 2.59601 0.423254 3.2692C0.141167 3.94238 0.00012207 4.64526 0.00012207 5.37784C0.00012207 6.11042 0.12236 6.8133 0.366837 7.48648C0.611313 8.15967 1.00624 8.78335 1.5516 9.35753L9.56289 17.7921C9.69453 17.9307 9.84497 18 10.0142 18C10.1835 18 10.3433 17.9307 10.4938 17.7921L18.5051 9.35753C19.0128 8.80315 19.3889 8.17946 19.6334 7.48648C19.8779 6.7935 20.0001 6.09062 20.0001 5.37784C20.0001 4.66506 19.8685 3.96218 19.6052 3.2692C19.3419 2.57622 18.9423 1.97233 18.4063 1.45755C17.8704 0.942759 17.2733 0.566569 16.6151 0.328976C15.9569 0.0913822 15.2987 -0.0175149 14.6405 0.00228455C13.9823 0.022084 13.3241 0.18048 12.6658 0.477472C12.0076 0.774464 11.4341 1.19025 10.9451 1.72484L10.0142 2.70491L9.08334 1.72484C8.57558 1.19025 8.002 0.774464 7.36261 0.477472C6.72321 0.18048 6.065 0.022084 5.38799 0.00228455C4.71098 -0.0175149 4.05278 0.0913822 3.41338 0.328976C2.77398 0.566569 2.191 0.942759 1.66444 1.45755Z" fill="white"/>
</svg>
