<svg width="19" height="18" viewBox="0 0 19 18" fill="none" xmlns="http://www.w3.org/2000/svg">
<path d="M9.04688 0C11.4922 0 11.7973 0.00899995 12.7567 0.0539999C13.7152 0.099 14.3677 0.2493 14.9419 0.4725C15.5359 0.7011 16.0363 1.0107 16.5367 1.5102C16.9943 1.96011 17.3484 2.50433 17.5744 3.105C17.7967 3.6783 17.9479 4.3317 17.9929 5.2902C18.0352 6.2496 18.0469 6.5547 18.0469 9C18.0469 11.4453 18.0379 11.7504 17.9929 12.7098C17.9479 13.6683 17.7967 14.3208 17.5744 14.895C17.3491 15.496 16.9949 16.0404 16.5367 16.4898C16.0866 16.9473 15.5425 17.3014 14.9419 17.5275C14.3686 17.7498 13.7152 17.901 12.7567 17.946C11.7973 17.9883 11.4922 18 9.04688 18C6.60157 18 6.29647 17.991 5.33707 17.946C4.37857 17.901 3.72607 17.7498 3.15188 17.5275C2.55097 17.302 2.00665 16.9479 1.55707 16.4898C1.09934 16.04 0.745213 15.4957 0.519375 14.895C0.296175 14.3217 0.145875 13.6683 0.100875 12.7098C0.058575 11.7504 0.046875 11.4453 0.046875 9C0.046875 6.5547 0.0558749 6.2496 0.100875 5.2902C0.145875 4.3308 0.296175 3.6792 0.519375 3.105C0.744588 2.50396 1.0988 1.95959 1.55707 1.5102C2.00678 1.05231 2.55106 0.698156 3.15188 0.4725C3.72607 0.2493 4.37767 0.099 5.33707 0.0539999C6.29647 0.0117 6.60157 0 9.04688 0ZM9.04688 4.5C7.8534 4.5 6.70881 4.97411 5.86489 5.81802C5.02098 6.66193 4.54688 7.80653 4.54688 9C4.54688 10.1935 5.02098 11.3381 5.86489 12.182C6.70881 13.0259 7.8534 13.5 9.04688 13.5C10.2403 13.5 11.3849 13.0259 12.2289 12.182C13.0728 11.3381 13.5469 10.1935 13.5469 9C13.5469 7.80653 13.0728 6.66193 12.2289 5.81802C11.3849 4.97411 10.2403 4.5 9.04688 4.5ZM14.8969 4.275C14.8969 3.97663 14.7783 3.69048 14.5674 3.47951C14.3564 3.26853 14.0702 3.15 13.7719 3.15C13.4735 3.15 13.1874 3.26853 12.9764 3.47951C12.7654 3.69048 12.6469 3.97663 12.6469 4.275C12.6469 4.57337 12.7654 4.85952 12.9764 5.0705C13.1874 5.28147 13.4735 5.4 13.7719 5.4C14.0702 5.4 14.3564 5.28147 14.5674 5.0705C14.7783 4.85952 14.8969 4.57337 14.8969 4.275ZM9.04688 6.3C9.76296 6.3 10.4497 6.58446 10.9561 7.09081C11.4624 7.59716 11.7469 8.28392 11.7469 9C11.7469 9.71608 11.4624 10.4028 10.9561 10.9092C10.4497 11.4155 9.76296 11.7 9.04688 11.7C8.33079 11.7 7.64403 11.4155 7.13769 10.9092C6.63134 10.4028 6.34687 9.71608 6.34687 9C6.34687 8.28392 6.63134 7.59716 7.13769 7.09081C7.64403 6.58446 8.33079 6.3 9.04688 6.3Z" fill="white"/>
</svg>
