<svg width="29" height="29" viewBox="0 0 29 29" fill="none" xmlns="http://www.w3.org/2000/svg">
<path d="M14.5891 0C18.4431 0 18.9239 0.0141847 20.436 0.0851086C21.9467 0.156033 22.9751 0.392919 23.8801 0.744701C24.8163 1.10499 25.605 1.59295 26.3937 2.38021C27.1149 3.0893 27.6731 3.94704 28.0292 4.89375C28.3795 5.79732 28.6178 6.82714 28.6888 8.33781C28.7554 9.84991 28.7739 10.3308 28.7739 14.1848C28.7739 18.0388 28.7597 18.5197 28.6888 20.0317C28.6178 21.5424 28.3795 22.5708 28.0292 23.4758C27.6741 24.423 27.1158 25.281 26.3937 25.9894C25.6844 26.7104 24.8267 27.2685 23.8801 27.6249C22.9765 27.9752 21.9467 28.2135 20.436 28.2845C18.9239 28.3511 18.4431 28.3696 14.5891 28.3696C10.7351 28.3696 10.2542 28.3554 8.74211 28.2845C7.23143 28.2135 6.20304 27.9752 5.29805 27.6249C4.35097 27.2695 3.49307 26.7113 2.7845 25.9894C2.06307 25.2804 1.50494 24.4226 1.149 23.4758C0.797215 22.5722 0.560329 21.5424 0.489405 20.0317C0.422737 18.5197 0.404297 18.0388 0.404297 14.1848C0.404297 10.3308 0.418482 9.84991 0.489405 8.33781C0.560329 6.82572 0.797215 5.79874 1.149 4.89375C1.50395 3.94646 2.06222 3.08848 2.7845 2.38021C3.49328 1.65853 4.35111 1.10036 5.29805 0.744701C6.20304 0.392919 7.23001 0.156033 8.74211 0.0851086C10.2542 0.0184401 10.7351 0 14.5891 0ZM14.5891 7.09239C12.7081 7.09239 10.9041 7.83962 9.574 9.1697C8.24392 10.4998 7.49669 12.3038 7.49669 14.1848C7.49669 16.0658 8.24392 17.8698 9.574 19.1999C10.9041 20.5299 12.7081 21.2772 14.5891 21.2772C16.4701 21.2772 18.2741 20.5299 19.6042 19.1999C20.9342 17.8698 21.6815 16.0658 21.6815 14.1848C21.6815 12.3038 20.9342 10.4998 19.6042 9.1697C18.2741 7.83962 16.4701 7.09239 14.5891 7.09239ZM23.8092 6.73777C23.8092 6.26752 23.6224 5.81652 23.2899 5.484C22.9573 5.15148 22.5063 4.96467 22.0361 4.96467C21.5658 4.96467 21.1148 5.15148 20.7823 5.484C20.4498 5.81652 20.263 6.26752 20.263 6.73777C20.263 7.20803 20.4498 7.65902 20.7823 7.99154C21.1148 8.32406 21.5658 8.51087 22.0361 8.51087C22.5063 8.51087 22.9573 8.32406 23.2899 7.99154C23.6224 7.65902 23.8092 7.20803 23.8092 6.73777ZM14.5891 9.92935C15.7177 9.92935 16.8001 10.3777 17.5981 11.1757C18.3962 11.9738 18.8445 13.0562 18.8445 14.1848C18.8445 15.3134 18.3962 16.3958 17.5981 17.1938C16.8001 17.9919 15.7177 18.4402 14.5891 18.4402C13.4605 18.4402 12.3781 17.9919 11.58 17.1938C10.782 16.3958 10.3336 15.3134 10.3336 14.1848C10.3336 13.0562 10.782 11.9738 11.58 11.1757C12.3781 10.3777 13.4605 9.92935 14.5891 9.92935Z" fill="#5A7770"/>
</svg>
