<svg width="31" height="31" viewBox="0 0 31 31" fill="none" xmlns="http://www.w3.org/2000/svg">
<path d="M11.729 14.8644C10.8554 14.8644 10.1464 15.5644 10.1464 16.4269C10.1464 17.2894 10.8554 17.9894 11.729 17.9894C12.6025 17.9894 13.3115 17.2894 13.3115 16.4269C13.3115 15.5644 12.6025 14.8644 11.729 14.8644ZM19.3254 14.8644C18.4518 14.8644 17.7428 15.5644 17.7428 16.4269C17.7428 17.2894 18.4518 17.9894 19.3254 17.9894C20.199 17.9894 20.908 17.2894 20.908 16.4269C20.908 15.5644 20.199 14.8644 19.3254 14.8644ZM15.5272 2.67688C8.53845 2.67688 2.86646 8.27688 2.86646 15.1769C2.86646 22.0769 8.53845 27.6769 15.5272 27.6769C22.5159 27.6769 28.1879 22.0769 28.1879 15.1769C28.1879 8.27688 22.5159 2.67688 15.5272 2.67688ZM15.5272 25.1769C9.94379 25.1769 5.3986 20.6894 5.3986 15.1769C5.3986 14.8144 5.42392 14.4519 5.4619 14.1019C8.44983 12.7894 10.8174 10.3769 12.0581 7.38938C14.3497 10.5894 18.1226 12.6769 22.3893 12.6769C23.3768 12.6769 24.3264 12.5644 25.2379 12.3519C25.5038 13.2394 25.6557 14.1894 25.6557 15.1769C25.6557 20.6894 21.1105 25.1769 15.5272 25.1769Z" fill="#333333"/>
</svg>
