<svg width="18" height="18" viewBox="0 0 18 18" fill="none" xmlns="http://www.w3.org/2000/svg">
<path d="M6.3 8.66361C5.679 8.66361 5.175 9.16122 5.175 9.77433C5.175 10.3875 5.679 10.8851 6.3 10.8851C6.921 10.8851 7.425 10.3875 7.425 9.77433C7.425 9.16122 6.921 8.66361 6.3 8.66361ZM11.7 8.66361C11.079 8.66361 10.575 9.16122 10.575 9.77433C10.575 10.3875 11.079 10.8851 11.7 10.8851C12.321 10.8851 12.825 10.3875 12.825 9.77433C12.825 9.16122 12.321 8.66361 11.7 8.66361ZM9 0C4.032 0 0 3.98082 0 8.88576C0 13.7907 4.032 17.7715 9 17.7715C13.968 17.7715 18 13.7907 18 8.88576C18 3.98082 13.968 0 9 0ZM9 15.9944C5.031 15.9944 1.8 12.8044 1.8 8.88576C1.8 8.62807 1.818 8.37038 1.845 8.12158C3.969 7.18858 5.652 5.47363 6.534 3.34993C8.163 5.62468 10.845 7.10861 13.878 7.10861C14.58 7.10861 15.255 7.02863 15.903 6.87758C16.092 7.50847 16.2 8.18378 16.2 8.88576C16.2 12.8044 12.969 15.9944 9 15.9944Z" fill="white"/>
</svg>
