<svg width="512" height="512" viewBox="0 0 512 512" fill="none" xmlns="http://www.w3.org/2000/svg">
<path d="M510.371 226.517C509.283 223.893 507.726 221.546 505.742 219.562L441.763 155.583C433.422 147.242 419.939 147.242 411.598 155.583C403.257 163.924 403.257 177.407 411.598 185.748L439.182 213.332H384.014V21.332C384.013 9.557 374.477 0 362.68 0H21.347C20.579 0 19.896 0.32 19.15 0.405C18.126 0.512 17.23 0.682 16.249 0.938C14.03 1.493 12.004 2.367 10.126 3.562C9.65698 3.861 9.05898 3.882 8.61098 4.223C8.43998 4.352 8.37598 4.587 8.20498 4.715C5.87998 6.549 3.93898 8.789 2.53098 11.456C2.23198 12.032 2.16798 12.651 1.93398 13.248C1.25098 14.869 0.504977 16.448 0.248977 18.24C0.141977 18.88 0.333977 19.477 0.312977 20.096C0.291977 20.523 0.0139771 20.907 0.0139771 21.333V448C0.0139771 458.176 7.20298 466.923 17.166 468.907L230.499 511.574C231.886 511.873 233.294 512.001 234.68 512.001C239.565 512.001 244.365 510.316 248.205 507.158C253.133 503.105 256.013 497.067 256.013 490.667V469.334H362.68C374.477 469.334 384.013 459.777 384.013 448.001V256H439.181L411.597 283.584C403.256 291.925 403.256 305.408 411.597 313.749C415.757 317.909 421.218 320 426.68 320C432.142 320 437.603 317.909 441.763 313.749L505.742 249.77C507.726 247.786 509.283 245.439 510.371 242.815C512.525 237.611 512.525 231.723 510.371 226.517ZM191.373 325.184C188.941 334.869 180.258 341.333 170.701 341.333C168.994 341.333 167.245 341.141 165.517 340.693L122.85 330.026C111.415 327.167 104.461 315.583 107.319 304.149C110.156 292.736 121.698 285.717 133.175 288.64L175.842 299.307C187.277 302.165 194.232 313.749 191.373 325.184ZM341.347 426.667H256.014V85.333C256.014 75.925 249.827 67.605 240.803 64.896L166.712 42.667H341.347V426.667Z" fill="white"/>
</svg>
