<svg width="186" height="66" viewBox="0 0 186 66" fill="none" xmlns="http://www.w3.org/2000/svg">
<path d="M86.8209 33.8501C86.8209 34.8027 86.6023 35.6772 86.165 36.4736C85.7278 37.2544 85.0563 37.8869 84.1505 38.371C83.2448 38.8551 82.1204 39.0971 80.7775 39.0971H78.2945V45H74.289V28.5563H80.7775C82.0892 28.5563 83.1979 28.7827 84.1037 29.2356C85.0094 29.6884 85.6887 30.3131 86.1416 31.1095C86.5944 31.9059 86.8209 32.8194 86.8209 33.8501ZM80.4729 35.9114C81.2381 35.9114 81.8081 35.7319 82.1829 35.3727C82.5577 35.0135 82.7451 34.506 82.7451 33.8501C82.7451 33.1942 82.5577 32.6867 82.1829 32.3275C81.8081 31.9684 81.2381 31.7888 80.4729 31.7888H78.2945V35.9114H80.4729ZM88.1098 38.4412C88.1098 37.0983 88.3596 35.9192 88.8593 34.9042C89.3747 33.8892 90.0696 33.1083 90.9441 32.5618C91.8186 32.0152 92.7946 31.7419 93.8721 31.7419C94.7934 31.7419 95.5977 31.9293 96.2848 32.3041C96.9875 32.6789 97.5263 33.1708 97.901 33.7798V31.9293H101.907V45H97.901V43.1495C97.5106 43.7585 96.9641 44.2504 96.2614 44.6252C95.5742 45 94.77 45.1874 93.8487 45.1874C92.7868 45.1874 91.8186 44.9141 90.9441 44.3675C90.0696 43.8054 89.3747 43.0168 88.8593 42.0017C88.3596 40.971 88.1098 39.7842 88.1098 38.4412ZM97.901 38.4647C97.901 37.4652 97.62 36.6766 97.0578 36.0988C96.5112 35.521 95.8397 35.2321 95.0433 35.2321C94.2469 35.2321 93.5676 35.521 93.0054 36.0988C92.4588 36.661 92.1856 37.4418 92.1856 38.4412C92.1856 39.4407 92.4588 40.2371 93.0054 40.8305C93.5676 41.4083 94.2469 41.6972 95.0433 41.6972C95.8397 41.6972 96.5112 41.4083 97.0578 40.8305C97.62 40.2527 97.901 39.4641 97.901 38.4647ZM108.81 34.1078C109.278 33.3894 109.864 32.8273 110.567 32.4212C111.269 31.9996 112.05 31.7888 112.909 31.7888V36.0286H111.808C110.809 36.0286 110.059 36.2472 109.559 36.6844C109.06 37.1061 108.81 37.8556 108.81 38.9331V45H104.804V31.9293H108.81V34.1078ZM122.109 41.6035V45H120.071C118.618 45 117.486 44.6486 116.674 43.9459C115.862 43.2276 115.456 42.0642 115.456 40.4557V35.2556H113.863V31.9293H115.456V28.7437H119.462V31.9293H122.085V35.2556H119.462V40.5026C119.462 40.893 119.555 41.1741 119.743 41.3458C119.93 41.5176 120.242 41.6035 120.68 41.6035H122.109ZM126.354 30.5707C125.652 30.5707 125.074 30.3677 124.621 29.9617C124.184 29.5401 123.965 29.0247 123.965 28.4157C123.965 27.7911 124.184 27.2757 124.621 26.8697C125.074 26.4481 125.652 26.2373 126.354 26.2373C127.041 26.2373 127.604 26.4481 128.041 26.8697C128.494 27.2757 128.72 27.7911 128.72 28.4157C128.72 29.0247 128.494 29.5401 128.041 29.9617C127.604 30.3677 127.041 30.5707 126.354 30.5707ZM128.345 31.9293V45H124.34V31.9293H128.345ZM135.254 27.6661V45H131.248V27.6661H135.254ZM146.191 31.7888C147.69 31.7888 148.892 32.2885 149.798 33.2879C150.704 34.2717 151.157 35.6303 151.157 37.3637V45H147.175V37.9025C147.175 37.028 146.948 36.3487 146.495 35.8646C146.042 35.3805 145.433 35.1384 144.668 35.1384C143.903 35.1384 143.294 35.3805 142.841 35.8646C142.388 36.3487 142.162 37.028 142.162 37.9025V45H138.156V27.6661H142.162V33.6861C142.568 33.1083 143.122 32.6477 143.825 32.3041C144.528 31.9606 145.316 31.7888 146.191 31.7888ZM153.144 38.4412C153.144 37.0983 153.394 35.9192 153.893 34.9042C154.409 33.8892 155.104 33.1083 155.978 32.5618C156.853 32.0152 157.829 31.7419 158.906 31.7419C159.827 31.7419 160.632 31.9293 161.319 32.3041C162.022 32.6789 162.56 33.1708 162.935 33.7798V31.9293H166.941V45H162.935V43.1495C162.545 43.7585 161.998 44.2504 161.295 44.6252C160.608 45 159.804 45.1874 158.883 45.1874C157.821 45.1874 156.853 44.9141 155.978 44.3675C155.104 43.8054 154.409 43.0168 153.893 42.0017C153.394 40.971 153.144 39.7842 153.144 38.4412ZM162.935 38.4647C162.935 37.4652 162.654 36.6766 162.092 36.0988C161.545 35.521 160.874 35.2321 160.077 35.2321C159.281 35.2321 158.602 35.521 158.039 36.0988C157.493 36.661 157.22 37.4418 157.22 38.4412C157.22 39.4407 157.493 40.2371 158.039 40.8305C158.602 41.4083 159.281 41.6972 160.077 41.6972C160.874 41.6972 161.545 41.4083 162.092 40.8305C162.654 40.2527 162.935 39.4641 162.935 38.4647ZM173.844 34.1078C174.312 33.3894 174.898 32.8273 175.601 32.4212C176.303 31.9996 177.084 31.7888 177.943 31.7888V36.0286H176.842C175.843 36.0286 175.093 36.2472 174.593 36.6844C174.094 37.1061 173.844 37.8556 173.844 38.9331V45H169.838V31.9293H173.844V34.1078Z" fill="#5A7770"/>
<path d="M21.3754 51.1682C18.7619 50.8902 19.2846 52.6675 19.7733 52.8208C20.262 52.9741 24.0332 55.8324 25.7137 56.2871C25.9489 56.734 21.7621 58.9583 19.5224 57.0458C17.4108 55.2451 15.908 49.0479 15.4324 47.6915C15.4324 47.6915 14.0211 41.871 13.4618 47.0757C12.9026 52.2803 14.5935 55.4998 14.5935 55.4998C14.5935 55.4998 16.3157 60.3406 23.2178 62.4921C30.1199 64.6436 37.0508 59.8079 37.0508 59.8079C37.0508 59.8079 32.9555 59.07 29.9684 56.5235C26.9812 53.9771 23.994 51.4514 21.3754 51.1682ZM18.1634 32.379C18.1634 30.593 17.6307 28.8471 16.6327 27.3622C15.6347 25.8772 14.2162 24.7199 12.5565 24.0365C10.8969 23.3532 9.07075 23.1745 7.309 23.5231C5.54725 23.8718 3.92905 24.732 2.65905 25.995C1.38906 27.2581 0.524313 28.8673 0.174188 30.619C-0.175936 32.3707 0.00428361 34.1863 0.692058 35.8362C1.37983 37.4861 2.54427 38.8961 4.03809 39.888C5.53191 40.8799 7.28803 41.409 9.08433 41.4085C10.2768 41.4085 11.4577 41.1749 12.5594 40.7211C13.6611 40.2673 14.662 39.6022 15.5052 38.7637C16.3483 37.9251 17.017 36.9297 17.4731 35.8342C17.9292 34.7387 18.1638 33.5646 18.1634 32.379ZM50.1023 18.0591C51.8992 18.0616 53.6564 17.5342 55.1517 16.5434C56.6469 15.5527 57.813 14.1432 58.5023 12.4934C59.1916 10.8435 59.3732 9.02745 59.024 7.27497C58.6748 5.52249 57.8107 3.91237 56.5408 2.64837C55.271 1.38437 53.6526 0.523306 51.8904 0.174139C50.1281 -0.175028 48.3014 0.00339746 46.6412 0.686836C44.981 1.37027 43.562 2.52801 42.5639 4.01353C41.5657 5.49905 41.0332 7.24559 41.0337 9.03212C41.0337 11.4244 41.9888 13.7189 43.6892 15.4115C45.3896 17.104 47.6962 18.0563 50.1023 18.0591ZM50.1023 47.9409C48.3059 47.9404 46.5497 48.4696 45.0558 49.4616C43.5619 50.4536 42.3975 51.8638 41.7098 53.5138C41.0221 55.1639 40.842 56.9796 41.1924 58.7314C41.5427 60.4832 42.4077 62.0923 43.678 63.3553C44.9482 64.6183 46.5667 65.4783 48.3286 65.8266C50.0905 66.1749 51.9168 65.9959 53.5763 65.3122C55.2359 64.6284 56.6543 63.4707 57.652 61.9854C58.6497 60.5001 59.1819 58.754 59.1814 56.9679C59.1793 54.5749 58.222 52.2806 56.5196 50.589C54.8172 48.8974 52.5091 47.9468 50.1023 47.9461V47.9409ZM61.3976 29.2946C59.5055 22.3568 51.6756 19.1608 51.6756 19.1608C51.6756 19.1608 53.2437 22.9909 52.7053 26.8625C52.1669 30.7342 51.6077 34.6058 52.7837 36.9496C53.9598 39.2934 55.1829 37.898 55.047 37.4017C54.9111 36.9054 55.3083 32.2049 54.7856 30.5575C55.047 30.1183 59.1762 32.4283 58.7633 35.336C58.3739 38.0747 53.931 42.6713 53.0451 43.7938C53.0451 43.7938 48.8635 48.1124 53.586 45.7765C58.3085 43.4405 60.1118 40.2782 60.1118 40.2782C60.1118 40.2782 63.2924 36.2376 61.3976 29.2998V29.2946ZM36.8835 7.54582C32.5008 4.64078 28.8498 4.64078 28.8498 4.64078C28.8498 4.64078 23.7379 3.91582 18.626 8.99834C13.5141 14.0809 14.6092 22.4322 14.6092 22.4322C14.6092 22.4322 17.1651 19.1634 20.8161 17.7109C24.4671 16.2583 28.118 14.8058 29.579 12.6283C31.0399 10.4509 29.2157 10.0871 28.8498 10.4509C28.4839 10.8146 24.19 12.8102 23.0061 14.0887C22.4991 14.0887 22.4547 9.36991 25.1988 8.27858C27.7809 7.2548 34.0009 8.79826 35.4226 9.00614C35.4226 9.00354 41.2637 10.4561 36.8835 7.55102V7.54582Z" fill="url(#paint0_linear)"/>
<defs>
<linearGradient id="paint0_linear" x1="9.92586" y1="51.8931" x2="66.4268" y2="19.0841" gradientUnits="userSpaceOnUse">
<stop stop-color="#FE9899"/>
<stop offset="0.11" stop-color="#FFC199"/>
<stop offset="0.27" stop-color="#FFE58F"/>
<stop offset="0.42" stop-color="#B8FFA3"/>
<stop offset="0.56" stop-color="#A6F9FE"/>
<stop offset="0.71" stop-color="#9CD0FF"/>
<stop offset="0.86" stop-color="#9BB6FD"/>
<stop offset="0.99" stop-color="#BE9FFF"/>
</linearGradient>
</defs>
</svg>
