<svg width="16" height="16" viewBox="0 0 16 16" fill="none" xmlns="http://www.w3.org/2000/svg">
<path d="M5.425 0C2.43803 0 0 2.43803 0 5.425C0 8.41197 2.43803 10.85 5.425 10.85C6.7797 10.85 8.01738 10.3447 8.97002 9.51797L9.3 9.84795V10.85L13.95 15.5L15.5 13.95L10.85 9.3H9.84795L9.51797 8.97002C10.3447 8.01738 10.85 6.7797 10.85 5.425C10.85 2.43803 8.41197 0 5.425 0ZM5.425 1.55C7.57428 1.55 9.3 3.27572 9.3 5.425C9.3 7.57428 7.57428 9.3 5.425 9.3C3.27572 9.3 1.55 7.57428 1.55 5.425C1.55 3.27572 3.27572 1.55 5.425 1.55Z" fill="#84A59D"/>
</svg>
