<svg width="12" height="18" viewBox="0 0 12 18" fill="none" xmlns="http://www.w3.org/2000/svg">
<path d="M6.3598 3.34884C7.29257 3.34884 8.05574 2.59535 8.05574 1.67442C8.05574 0.753488 7.29257 0 6.3598 0C5.42703 0 4.66385 0.753488 4.66385 1.67442C4.66385 2.59535 5.42703 3.34884 6.3598 3.34884ZM11.8716 9.2093V18H11.0236V9.2093C11.0236 8.97488 10.8371 8.7907 10.5997 8.7907C10.3622 8.7907 10.1757 8.97488 10.1757 9.2093V10.0465H9.3277V9.46884C8.08966 9.1507 7.03818 8.38884 6.35132 7.35907C6.08845 8.08744 5.93581 8.8493 5.93581 9.62791C5.93581 9.82047 5.95277 10.013 5.96125 10.2056L7.63176 12.5581V18H5.93581V13.814L4.42642 11.6874L4.23987 14.6512L1.69595 18L0.339189 16.9953L2.54392 14.0902V9.62791C2.54392 8.66512 2.69655 7.7107 2.96791 6.78977L1.69595 7.5014V10.4651H0V6.53023L4.57905 3.96V3.96837C5.07936 3.70884 5.69838 3.69209 6.22412 3.99349C6.52939 4.1693 6.75835 4.42046 6.9025 4.70512L7.5724 6.10326C8.12358 7.2 9.27682 7.95349 10.5997 7.95349C11.3035 7.95349 11.8716 8.51442 11.8716 9.2093Z" fill="white"/>
</svg>
