<svg width="28" height="28" viewBox="0 0 28 28" fill="none" xmlns="http://www.w3.org/2000/svg">
<path d="M15.6912 6.36438C16.9447 6.36438 17.9702 5.35188 17.9702 4.11438C17.9702 2.87688 16.9447 1.86438 15.6912 1.86438C14.4378 1.86438 13.4123 2.87688 13.4123 4.11438C13.4123 5.35188 14.4378 6.36438 15.6912 6.36438ZM23.0978 14.2394V26.0519H21.9583V14.2394C21.9583 13.9244 21.7076 13.6769 21.3886 13.6769C21.0695 13.6769 20.8188 13.9244 20.8188 14.2394V15.3644H19.6794V14.5881C18.0157 14.1606 16.6028 13.1369 15.6798 11.7531C15.3266 12.7319 15.1215 13.7556 15.1215 14.8019C15.1215 15.0606 15.1443 15.3194 15.1557 15.5781L17.4004 18.7394V26.0519H15.1215V20.4269L13.0933 17.5694L12.8426 21.5519L9.42419 26.0519L7.60105 24.7019L10.5637 20.7981V14.8019C10.5637 13.5081 10.7688 12.2256 11.1334 10.9881L9.42419 11.9444V15.9269H7.14526V10.6394L13.2984 7.18563V7.19688C13.9707 6.84813 14.8025 6.82563 15.5089 7.23063C15.9191 7.46688 16.2268 7.80438 16.4205 8.18688L17.3207 10.0656C18.0613 11.5394 19.611 12.5519 21.3886 12.5519C22.3343 12.5519 23.0978 13.3056 23.0978 14.2394Z" fill="#333333"/>
</svg>
