<svg width="19" height="7" viewBox="0 0 19 7" fill="none" xmlns="http://www.w3.org/2000/svg">
<path d="M18.6461 0.267172C18.2568 -0.0857586 17.6499 -0.0626697 17.2409 0.267172L14.1932 2.7047C13.8205 3.00486 13.3554 3.16648 12.8738 3.16648L8.97181 3.16648C8.68155 3.16648 8.44407 2.92899 8.44407 2.63873C8.44407 2.34847 8.68155 2.11099 8.97181 2.11099L11.5545 2.11099C12.0789 2.11099 12.5671 1.75146 12.6528 1.23361C12.7617 0.573924 12.2537 0 11.6105 0L6.33308 0C5.44251 0 4.58162 0.306752 3.88895 0.867483L2.35519 2.11099L0.527869 2.11099C0.237608 2.11099 0.00012207 2.34847 0.00012207 2.63873L0.00012207 5.80521C0.00012207 6.09547 0.237608 6.33296 0.527869 6.33296L12.2966 6.33296C12.7749 6.33296 13.24 6.17133 13.616 5.87118L18.6032 1.8801C19.1045 1.48099 19.1441 0.715756 18.6461 0.267172Z" fill="white"/>
</svg>
