<svg width="28" height="28" viewBox="0 0 28 28" fill="none" xmlns="http://www.w3.org/2000/svg">
<path d="M25.3896 23.8019C24.1248 23.8019 23.4183 23.3856 22.9056 23.0819C22.484 22.8344 22.2219 22.6769 21.5952 22.6769C20.9571 22.6769 20.7064 22.8231 20.2848 23.0819C19.7607 23.3856 19.0656 23.8019 17.8008 23.8019C16.536 23.8019 15.8295 23.3856 15.3168 23.0819C14.8952 22.8344 14.6331 22.6769 14.0064 22.6769C13.3683 22.6769 13.1176 22.8231 12.696 23.0819C12.1718 23.3856 11.4654 23.8019 10.2006 23.8019C8.93576 23.8019 8.22929 23.3856 7.71653 23.0819C7.29493 22.8231 7.03286 22.6769 6.40615 22.6769C5.77945 22.6769 5.51737 22.8231 5.09577 23.0819C4.57161 23.3856 3.86515 23.8019 2.60034 23.8019V21.5519C3.23844 21.5519 3.48912 21.4056 3.91073 21.1469C4.43488 20.8431 5.14135 20.4269 6.40615 20.4269C7.67096 20.4269 8.37742 20.8431 8.89018 21.1469C9.31178 21.4056 9.56247 21.5519 10.2006 21.5519C10.8387 21.5519 11.0893 21.4056 11.5109 21.1469C12.0351 20.8431 12.7416 20.4269 14.0064 20.4269C15.2712 20.4269 15.9776 20.8431 16.4904 21.1469C16.912 21.3944 17.1741 21.5519 17.8008 21.5519C18.4275 21.5519 18.6896 21.4056 19.1112 21.1469C19.6239 20.8431 20.3304 20.4269 21.5952 20.4269C22.86 20.4269 23.5665 20.8431 24.0792 21.1469C24.5008 21.4056 24.7515 21.5519 25.3896 21.5519V23.8019ZM25.3896 18.7394C24.1248 18.7394 23.4183 18.3231 22.9056 18.0194C22.484 17.7719 22.2219 17.6144 21.5952 17.6144C20.9571 17.6144 20.7064 17.7606 20.2848 18.0194C19.7721 18.3231 19.0656 18.7394 17.8008 18.7394C16.536 18.7394 15.8295 18.3231 15.3168 18.0194C14.8952 17.7719 14.6331 17.6144 14.0064 17.6144C13.3683 17.6144 13.1176 17.7606 12.696 18.0194C12.1832 18.3231 11.4768 18.7394 10.212 18.7394C8.94716 18.7394 8.24069 18.3231 7.72793 18.0194C7.30633 17.7719 7.04425 17.6144 6.41755 17.6144C5.79084 17.6144 5.52876 17.7606 5.10716 18.0194C4.57161 18.3231 3.86515 18.7394 2.60034 18.7394V16.4894C3.23844 16.4894 3.48912 16.3431 3.91073 16.0844C4.42348 15.7806 5.12995 15.3644 6.39476 15.3644C7.65956 15.3644 8.36603 15.7806 8.87879 16.0844C9.30039 16.3319 9.56247 16.4894 10.1892 16.4894C10.8273 16.4894 11.078 16.3431 11.4996 16.0844C12.0123 15.7806 12.7188 15.3644 13.9836 15.3644C15.2484 15.3644 15.9549 15.7806 16.4676 16.0844C16.8892 16.3319 17.1513 16.4894 17.778 16.4894C18.4047 16.4894 18.6668 16.3431 19.0884 16.0844C19.6011 15.7806 20.3076 15.3644 21.5724 15.3644C22.8372 15.3644 23.5437 15.7806 24.0564 16.0844C24.478 16.3319 24.7401 16.4894 25.3668 16.4894V18.7394H25.3896ZM10.2006 13.6769C10.8387 13.6769 11.0893 13.5306 11.5109 13.2719C12.0351 12.9681 12.7416 12.5519 14.0064 12.5519C15.2712 12.5519 15.9776 12.9681 16.4904 13.2719C16.912 13.5194 17.1741 13.6769 17.8008 13.6769C18.4275 13.6769 18.6896 13.5306 19.1112 13.2719C19.2479 13.1931 19.4074 13.1031 19.5784 13.0131L12.263 5.80188C10.4968 4.05813 8.86739 3.54063 6.01873 3.55188V6.36438C8.09256 6.35313 9.31178 6.80313 10.5766 8.05188L11.7161 9.17688L8.01279 12.8331C8.36603 12.9681 8.65089 13.1369 8.89018 13.2719C9.31178 13.5306 9.56247 13.6769 10.2006 13.6769Z" fill="#333333"/>
<path d="M19.1226 9.17688C20.6959 9.17688 21.9712 7.91768 21.9712 6.36438C21.9712 4.81108 20.6959 3.55188 19.1226 3.55188C17.5493 3.55188 16.2739 4.81108 16.2739 6.36438C16.2739 7.91768 17.5493 9.17688 19.1226 9.17688Z" fill="#333333"/>
</svg>
