<svg width="20" height="18" viewBox="0 0 20 18" fill="none" xmlns="http://www.w3.org/2000/svg">
<path d="M0.646544 6.33831L6.64215 5.51709L9.32235 0.396152C9.39555 0.255944 9.51599 0.142442 9.66475 0.0734507C10.0379 -0.100141 10.4912 0.0445188 10.6778 0.396152L13.358 5.51709L19.3536 6.33831C19.5189 6.36057 19.67 6.43401 19.7857 6.54529C19.9256 6.68079 20.0027 6.86309 20.0001 7.05213C19.9974 7.24117 19.9152 7.42149 19.7716 7.55345L15.4337 11.5394L16.4585 17.1677C16.4826 17.2987 16.4672 17.4333 16.4141 17.5564C16.3611 17.6795 16.2725 17.7862 16.1585 17.8643C16.0444 17.9424 15.9094 17.9887 15.7688 17.9982C15.6281 18.0077 15.4875 17.9798 15.3628 17.9177L10.0001 15.2605L4.63732 17.9177C4.49091 17.9912 4.32089 18.0157 4.15795 17.989C3.74707 17.9222 3.47079 17.555 3.54163 17.1677L4.56648 11.5394L0.228575 7.55345C0.110504 7.4444 0.0325775 7.30197 0.00896263 7.14618C-0.0547943 6.75671 0.233297 6.39618 0.646544 6.33831Z" fill="white"/>
</svg>
