<svg width="60" height="60" viewBox="0 0 60 60" fill="none" xmlns="http://www.w3.org/2000/svg">
<path d="M48 12H53.88C55.59 12 57 13.41 57 15.12V53.88C57 55.59 55.59 57 53.88 57H15.12C13.41 57 12 55.59 12 53.88V48H6.12C4.41 48 3 46.59 3 44.88V6.12C3 4.41 4.41 3 6.12 3H44.88C46.59 3 48 4.41 48 6.12V12ZM9 42H42V9H9V42ZM24 16.5C24 14.01 21.99 12 19.5 12C17.01 12 15 14.01 15 16.5C15 18.99 17.01 21 19.5 21C21.99 21 24 18.99 24 16.5ZM30 30C30 30 33 15 39 15V39H12V21C18 21 18 30 18 30C18 30 18.99 24 24 24C29.01 24 30 30 30 30ZM51 51V18H48V44.88C48 46.59 46.59 48 44.88 48H18V51H51Z" fill="#373737"/>
</svg>
