<svg width="19" height="15" viewBox="0 0 19 15" fill="none" xmlns="http://www.w3.org/2000/svg">
<path fill-rule="evenodd" clip-rule="evenodd" d="M14.8691 4.15874H14.937C15.4707 4.15882 15.9992 4.25836 16.4922 4.45164C16.9852 4.64493 17.4329 4.92816 17.8097 5.28512C18.5719 6.00653 19 6.98397 19 8.00303C19 9.02209 18.5719 9.99953 17.8097 10.7209C17.4329 11.0779 16.9852 11.3611 16.4922 11.5544C15.9992 11.7477 15.4707 11.8472 14.937 11.8473H12.2298V10.5659H14.937C15.6358 10.5364 16.2956 10.2535 16.779 9.77606C17.2625 9.29866 17.5323 8.66357 17.5323 8.00303C17.5323 7.34248 17.2625 6.7074 16.779 6.23C16.2956 5.7526 15.6358 5.46969 14.937 5.44017H13.6967L13.5298 4.34198C13.4279 3.65395 13.0911 3.01611 12.5704 2.52533C12.0497 2.03455 11.3736 1.71766 10.6448 1.62279C9.91556 1.52872 9.17379 1.66318 8.53328 2.00553C7.89276 2.34788 7.38888 2.87922 7.09894 3.51803L6.64706 4.49447L5.54924 4.25228C5.29831 4.19351 5.04106 4.16212 4.78254 4.15874C3.8842 4.15874 3.02251 4.49576 2.38879 5.09675C1.91651 5.54518 1.59517 6.11545 1.46515 6.73587C1.33514 7.35628 1.40226 7.99914 1.65809 8.58363C1.91391 9.16813 2.34701 9.66815 2.90293 10.0209C3.45886 10.3735 4.1128 10.5632 4.78254 10.5659H8.1669V11.8473H4.78254C4.1104 11.853 3.44469 11.7234 2.82976 11.4671C2.21483 11.2108 1.66481 10.8337 1.21634 10.3609C0.538257 9.64777 0.119738 8.74842 0.0220638 7.79449C-0.0756103 6.84055 0.152691 5.88214 0.67354 5.05959C1.01851 4.51462 1.48218 4.04511 2.03382 3.68214C2.58546 3.31918 3.21249 3.07105 3.87335 2.9542C4.53285 2.83887 5.21271 2.85553 5.86543 3.00673C6.27671 2.11744 6.98348 1.37881 7.87883 0.902538C8.77419 0.42627 9.80942 0.238276 10.828 0.366989C11.847 0.497197 12.793 0.938 13.5225 1.6224C14.2519 2.3068 14.7247 3.19737 14.8691 4.15874ZM12.6124 9.09609L10.8293 7.41357V14.3794H9.48048V7.4597L7.74623 9.09737L6.78683 8.19012L9.69895 5.44017H10.6597L13.5718 8.19012L12.6124 9.09609Z" fill="black"/>
</svg>
