<svg width="29" height="29" viewBox="0 0 29 29" fill="none" xmlns="http://www.w3.org/2000/svg">
<path d="M26.3203 6.56025C22.0648 -0.000216866 13.3766 -1.95063 6.63886 2.1275C0.0783941 6.20563 -2.04932 15.0711 2.20611 21.6316L2.56073 22.1635L1.14225 27.4828L6.46155 26.0643L6.99348 26.419C9.29851 27.6601 11.7809 28.3694 14.2632 28.3694C16.9228 28.3694 19.5825 27.6601 21.8875 26.2416C28.448 21.9862 30.3984 13.298 26.3203 6.56025ZM22.5968 20.2131C21.8875 21.277 21.001 21.9862 19.7598 22.1635C19.0506 22.1635 18.164 22.5181 14.6178 21.0997C11.6035 19.6812 9.1212 17.3762 7.3481 14.7165C6.28424 13.4753 5.75231 11.8795 5.575 10.2838C5.575 8.86528 6.10693 7.62411 6.99348 6.73756C7.3481 6.38294 7.70272 6.20563 8.05734 6.20563H8.94389C9.29851 6.20563 9.65313 6.20563 9.83044 6.91487C10.1851 7.80142 11.0716 9.92914 11.0716 10.1064C11.2489 10.2838 11.2489 10.6384 11.0716 10.8157C11.2489 11.1703 11.0716 11.5249 10.8943 11.7022C10.717 11.8795 10.5397 12.2342 10.3624 12.4115C10.0078 12.5888 9.83044 12.9434 10.0078 13.298C10.717 14.3619 11.6035 15.4257 12.4901 16.3123C13.5539 17.1988 14.6178 17.9081 15.859 18.44C16.2136 18.6173 16.5682 18.6173 16.7455 18.2627C16.9228 17.9081 17.8094 17.0215 18.164 16.6669C18.5186 16.3123 18.6959 16.3123 19.0506 16.4896L21.8875 17.9081C22.2421 18.0854 22.5968 18.2627 22.7741 18.44C22.9514 18.9719 22.9514 19.6812 22.5968 20.2131Z" fill="#5A7770"/>
</svg>
