<svg width="133" height="50" viewBox="0 0 133 50" fill="none" xmlns="http://www.w3.org/2000/svg">
<path d="M13.7691 24.5276C13.7691 23.1747 13.3652 21.8522 12.6087 20.7273C11.8521 19.6024 10.7768 18.7257 9.51866 18.2081C8.26057 17.6904 6.87622 17.5551 5.5407 17.8192C4.20517 18.0832 2.97847 18.7349 2.01573 19.6917C1.05299 20.6485 0.397463 21.8674 0.132046 23.1944C-0.133371 24.5213 0.00324723 25.8967 0.524624 27.1465C1.046 28.3963 1.92872 29.4645 3.06113 30.2158C4.19355 30.9672 5.52479 31.368 6.88651 31.3676C7.7905 31.3676 8.68564 31.1907 9.5208 30.8469C10.356 30.5031 11.1148 29.9993 11.7539 29.3641C12.393 28.7289 12.9 27.9749 13.2457 27.145C13.5915 26.3151 13.7693 25.4257 13.7691 24.5276V24.5276ZM16.2039 38.7607C14.2227 38.5501 14.619 39.8965 14.9894 40.0126C15.3599 40.1287 18.2187 42.2939 19.4926 42.6384C19.6709 42.9769 16.4971 44.6618 14.7993 43.2131C13.1985 41.8491 12.0593 37.1546 11.6987 36.1271C11.6987 36.1271 10.6289 31.718 10.2049 35.6606C9.78098 39.6032 11.0628 42.042 11.0628 42.042C11.0628 42.042 12.3684 45.709 17.6006 47.3388C22.8329 48.9686 28.0869 45.3055 28.0869 45.3055C28.0869 45.3055 24.9824 44.7465 22.7179 42.8175C20.4535 40.8885 18.189 38.9753 16.2039 38.7607V38.7607ZM37.9808 13.68C39.3429 13.682 40.675 13.2824 41.8085 12.5319C42.942 11.7814 43.826 10.7137 44.3485 9.46394C44.871 8.21415 45.0087 6.83844 44.744 5.51091C44.4793 4.18337 43.8242 2.96368 42.8616 2.00618C41.899 1.04868 40.6721 0.396413 39.3362 0.131913C38.0004 -0.132586 36.6155 0.00257364 35.357 0.520289C34.0985 1.03801 33.0228 1.91501 32.2661 3.04031C31.5095 4.16562 31.1058 5.48865 31.1062 6.84198C31.1062 8.65418 31.8302 10.3923 33.1192 11.6744C34.4082 12.9566 36.1568 13.6779 37.9808 13.68V13.68ZM46.5434 22.1951C45.109 16.9396 39.1734 14.5185 39.1734 14.5185C39.1734 14.5185 40.3621 17.4199 39.954 20.3527C39.5459 23.2856 39.1219 26.2184 40.0135 27.9939C40.905 29.7693 41.8322 28.7123 41.7291 28.3363C41.6261 27.9604 41.9273 24.3997 41.531 23.1517C41.7291 22.8191 44.8594 24.5689 44.5463 26.7715C44.2512 28.8462 40.8832 32.3282 40.2116 33.1785C40.2116 33.1785 37.0417 36.4499 40.6217 34.6803C44.2016 32.9108 45.5686 30.5114 45.5686 30.5114C45.5686 30.5114 47.9797 27.4506 46.5434 22.1951V22.1951ZM37.9808 36.32C36.619 36.3196 35.2877 36.7205 34.1552 37.4719C33.0227 38.2233 32.14 39.2916 31.6187 40.5415C31.0974 41.7914 30.9609 43.1669 31.2265 44.4939C31.492 45.8209 32.1478 47.0399 33.1107 47.9966C34.0737 48.9533 35.3005 49.6048 36.6362 49.8687C37.9718 50.1325 39.3563 49.9969 40.6143 49.479C41.8724 48.961 42.9476 48.084 43.7039 46.9589C44.4602 45.8337 44.8637 44.511 44.8633 43.158C44.8628 41.3446 44.1375 39.6056 42.8469 38.3234C41.5563 37.0411 39.806 36.3205 37.9808 36.32ZM27.9601 5.72002C24.6377 3.5194 21.87 3.5194 21.87 3.5194C21.87 3.5194 17.9949 2.97023 14.1197 6.82033C10.2446 10.6704 11.0747 16.9967 11.0747 16.9967C11.0747 16.9967 13.0123 14.5205 15.7799 13.4202C18.5476 12.3199 21.3153 11.2196 22.4228 9.57011C23.5302 7.92063 22.1474 7.64506 21.87 7.92063C21.5926 8.1962 18.3376 9.70789 17.4401 10.6763C17.0558 10.6763 17.0221 7.1018 19.1023 6.27509C21.0597 5.49956 25.7749 6.66876 26.8526 6.82623C26.8526 6.82033 31.2805 7.92063 27.9601 5.72002Z" fill="white"/>
<path d="M63.7652 25.214C63.7652 25.8792 63.6126 26.4898 63.3072 27.046C63.0019 27.5912 62.533 28.0329 61.9005 28.3709C61.268 28.709 60.4829 28.878 59.5451 28.878H57.8112V33H55.0141V21.5173H59.5451C60.4611 21.5173 61.2353 21.6754 61.8678 21.9916C62.5003 22.3079 62.9746 22.744 63.2909 23.3002C63.6071 23.8563 63.7652 24.4943 63.7652 25.214ZM59.3324 26.6534C59.8668 26.6534 60.2648 26.528 60.5265 26.2772C60.7882 26.0264 60.9191 25.672 60.9191 25.214C60.9191 24.756 60.7882 24.4016 60.5265 24.1508C60.2648 23.9 59.8668 23.7745 59.3324 23.7745H57.8112V26.6534H59.3324ZM64.6653 28.42C64.6653 27.4822 64.8397 26.6589 65.1887 25.9501C65.5486 25.2412 66.0338 24.696 66.6445 24.3143C67.2552 23.9327 67.9367 23.7418 68.6891 23.7418C69.3325 23.7418 69.8941 23.8727 70.3739 24.1344C70.8646 24.3961 71.2409 24.7396 71.5026 25.1649V23.8727H74.2997V33H71.5026V31.7078C71.23 32.1331 70.8483 32.4766 70.3576 32.7383C69.8778 33 69.3162 33.1309 68.6728 33.1309C67.9313 33.1309 67.2552 32.94 66.6445 32.5584C66.0338 32.1658 65.5486 31.6151 65.1887 30.9063C64.8397 30.1866 64.6653 29.3578 64.6653 28.42ZM71.5026 28.4363C71.5026 27.7384 71.3063 27.1877 70.9137 26.7843C70.532 26.3808 70.0631 26.1791 69.507 26.1791C68.9509 26.1791 68.4765 26.3808 68.0839 26.7843C67.7023 27.1768 67.5114 27.7221 67.5114 28.42C67.5114 29.1179 67.7023 29.674 68.0839 30.0884C68.4765 30.4919 68.9509 30.6936 69.507 30.6936C70.0631 30.6936 70.532 30.4919 70.9137 30.0884C71.3063 29.6849 71.5026 29.1343 71.5026 28.4363ZM79.1203 25.3939C79.4474 24.8923 79.8564 24.4997 80.3471 24.2162C80.8378 23.9218 81.383 23.7745 81.9828 23.7745V26.7352H81.214C80.5161 26.7352 79.9927 26.8879 79.6437 27.1932C79.2948 27.4876 79.1203 28.0111 79.1203 28.7635V33H76.3232V23.8727H79.1203V25.3939ZM88.4068 30.6282V33H86.9838C85.9696 33 85.179 32.7546 84.612 32.2639C84.0449 31.7623 83.7614 30.9499 83.7614 29.8267V26.1954H82.6491V23.8727H83.7614V21.6481H86.5585V23.8727H88.3905V26.1954H86.5585V29.8594C86.5585 30.132 86.6239 30.3283 86.7548 30.4483C86.8856 30.5682 87.1037 30.6282 87.409 30.6282H88.4068ZM91.3716 22.924C90.8809 22.924 90.4774 22.7822 90.1611 22.4987C89.8558 22.2043 89.7031 21.8444 89.7031 21.4191C89.7031 20.9829 89.8558 20.6231 90.1611 20.3395C90.4774 20.0451 90.8809 19.8979 91.3716 19.8979C91.8514 19.8979 92.244 20.0451 92.5493 20.3395C92.8655 20.6231 93.0236 20.9829 93.0236 21.4191C93.0236 21.8444 92.8655 22.2043 92.5493 22.4987C92.244 22.7822 91.8514 22.924 91.3716 22.924ZM92.7619 23.8727V33H89.9649V23.8727H92.7619ZM97.586 20.8957V33H94.7889V20.8957H97.586ZM105.224 23.7745C106.27 23.7745 107.11 24.1235 107.743 24.8214C108.375 25.5084 108.691 26.4571 108.691 27.6676V33H105.911V28.0438C105.911 27.4331 105.752 26.9587 105.436 26.6207C105.12 26.2826 104.695 26.1136 104.16 26.1136C103.626 26.1136 103.201 26.2826 102.884 26.6207C102.568 26.9587 102.41 27.4331 102.41 28.0438V33H99.613V20.8957H102.41V25.0995C102.694 24.696 103.081 24.3743 103.571 24.1344C104.062 23.8945 104.613 23.7745 105.224 23.7745ZM110.079 28.42C110.079 27.4822 110.253 26.6589 110.602 25.9501C110.962 25.2412 111.447 24.696 112.058 24.3143C112.669 23.9327 113.35 23.7418 114.103 23.7418C114.746 23.7418 115.308 23.8727 115.787 24.1344C116.278 24.3961 116.654 24.7396 116.916 25.1649V23.8727H119.713V33H116.916V31.7078C116.644 32.1331 116.262 32.4766 115.771 32.7383C115.291 33 114.73 33.1309 114.086 33.1309C113.345 33.1309 112.669 32.94 112.058 32.5584C111.447 32.1658 110.962 31.6151 110.602 30.9063C110.253 30.1866 110.079 29.3578 110.079 28.42ZM116.916 28.4363C116.916 27.7384 116.72 27.1877 116.327 26.7843C115.946 26.3808 115.477 26.1791 114.921 26.1791C114.364 26.1791 113.89 26.3808 113.497 26.7843C113.116 27.1768 112.925 27.7221 112.925 28.42C112.925 29.1179 113.116 29.674 113.497 30.0884C113.89 30.4919 114.364 30.6936 114.921 30.6936C115.477 30.6936 115.946 30.4919 116.327 30.0884C116.72 29.6849 116.916 29.1343 116.916 28.4363ZM124.534 25.3939C124.861 24.8923 125.27 24.4997 125.761 24.2162C126.251 23.9218 126.797 23.7745 127.396 23.7745V26.7352H126.628C125.93 26.7352 125.406 26.8879 125.057 27.1932C124.708 27.4876 124.534 28.0111 124.534 28.7635V33H121.737V23.8727H124.534V25.3939Z" fill="white"/>
</svg>
