<svg width="15" height="25" viewBox="0 0 15 25" fill="none" xmlns="http://www.w3.org/2000/svg">
<path d="M7.48956 5.42688C8.95795 5.42688 10.1483 4.25163 10.1483 2.80188C10.1483 1.35213 8.95795 0.17688 7.48956 0.17688C6.02117 0.17688 4.83081 1.35213 4.83081 2.80188C4.83081 4.25163 6.02117 5.42688 7.48956 5.42688Z" fill="#333333"/>
<path d="M14.0833 13.2032L13.5928 11.5902C13.5928 11.5902 13.5928 11.587 13.5928 11.5851L12.5265 8.07602H12.5241L12.4049 7.67993C12.2741 7.2456 12.0047 6.8646 11.6369 6.59364C11.269 6.32268 10.8223 6.17626 10.3634 6.17618H4.66607C4.20706 6.17604 3.7603 6.32237 3.3924 6.59336C3.02449 6.86435 2.75515 7.24548 2.62453 7.67993L2.50537 8.07602H2.50252L1.43617 11.5851C1.43617 11.5851 1.43617 11.5884 1.43617 11.5902L0.943825 13.2032C0.795694 13.6902 1.05302 14.2185 1.54062 14.3816C1.66141 14.4222 1.78926 14.4384 1.91651 14.4291C2.04377 14.4198 2.16783 14.3853 2.28127 14.3277C2.39472 14.27 2.49524 14.1904 2.57681 14.0935C2.65838 13.9966 2.71934 13.8845 2.75605 13.7638L3.97053 9.76774L4.07355 9.42883C4.10364 9.34601 4.16227 9.27626 4.23918 9.23181C4.31609 9.18735 4.40638 9.17101 4.49426 9.18565C4.58214 9.20029 4.66201 9.24497 4.71989 9.31188C4.77778 9.37879 4.80998 9.46366 4.81088 9.55165C4.81086 9.57701 4.80815 9.6023 4.80281 9.62712L2.72661 16.461C2.69257 16.573 2.68551 16.6913 2.706 16.8064C2.72649 16.9216 2.77396 17.0304 2.84463 17.1242C2.91529 17.218 3.00719 17.2942 3.11299 17.3467C3.21879 17.3993 3.33555 17.4266 3.45397 17.4266H4.83082V22.8027C4.83082 23.5743 5.33076 24.1766 5.97028 24.1766C6.60981 24.1766 7.10975 23.5743 7.10975 22.8027V17.4266H7.86939V22.8027C7.86939 23.5743 8.36933 24.1766 9.00886 24.1766C9.64838 24.1766 10.1483 23.5743 10.1483 22.8027V17.4266H11.5726C11.6911 17.4267 11.8079 17.3994 11.9138 17.3469C12.0196 17.2944 12.1116 17.2182 12.1823 17.1244C12.253 17.0306 12.3006 16.9217 12.3211 16.8065C12.3416 16.6914 12.3345 16.573 12.3005 16.461L10.2238 9.62618C10.2186 9.60167 10.2161 9.57669 10.2162 9.55165C10.2167 9.46339 10.2487 9.37813 10.3066 9.31087C10.3645 9.24361 10.4445 9.19866 10.5326 9.18394C10.6208 9.16921 10.7114 9.18565 10.7884 9.23035C10.8655 9.27506 10.9241 9.34518 10.954 9.42837L11.057 9.76727L12.271 13.7634C12.3079 13.8838 12.369 13.9958 12.4506 14.0924C12.5322 14.1891 12.6327 14.2686 12.746 14.3261C12.8594 14.3836 12.9834 14.418 13.1105 14.4273C13.2376 14.4365 13.3653 14.4203 13.486 14.3798C13.9736 14.2185 14.2309 13.6902 14.0833 13.2032Z" fill="#333333"/>
</svg>
