<svg width="20" height="18" viewBox="0 0 20 18" fill="none" xmlns="http://www.w3.org/2000/svg">
<path d="M17.6968 4.16237C14.9968 -0.000137597 9.48432 -1.23764 5.20931 1.34986C1.04681 3.93737 -0.303191 9.56237 2.39681 13.7249L2.62181 14.0624L1.72181 17.4374L5.09681 16.5374L5.43431 16.7624C6.89682 17.5499 8.47182 17.9999 10.0468 17.9999C11.7343 17.9999 13.4218 17.5499 14.8843 16.6499C19.0468 13.9499 20.2843 8.43737 17.6968 4.16237ZM15.3343 12.8249C14.8843 13.4999 14.3218 13.9499 13.5343 14.0624C13.0843 14.0624 12.5218 14.2874 10.2718 13.3874C8.35932 12.4874 6.78432 11.0249 5.65931 9.33737C4.98431 8.54987 4.64681 7.53737 4.53431 6.52487C4.53431 5.62487 4.87181 4.83737 5.43431 4.27487C5.65931 4.04987 5.88431 3.93737 6.10931 3.93737H6.67181C6.89682 3.93737 7.12182 3.93737 7.23432 4.38737C7.45932 4.94987 8.02182 6.29987 8.02182 6.41237C8.13432 6.52487 8.13432 6.74987 8.02182 6.86237C8.13432 7.08737 8.02182 7.31237 7.90932 7.42487C7.79682 7.53737 7.68432 7.76237 7.57182 7.87487C7.34682 7.98737 7.23432 8.21237 7.34682 8.43737C7.79682 9.11237 8.35932 9.78737 8.92182 10.3499C9.59682 10.9124 10.2718 11.3624 11.0593 11.6999C11.2843 11.8124 11.5093 11.8124 11.6218 11.5874C11.7343 11.3624 12.2968 10.7999 12.5218 10.5749C12.7468 10.3499 12.8593 10.3499 13.0843 10.4624L14.8843 11.3624C15.1093 11.4749 15.3343 11.5874 15.4468 11.6999C15.5593 12.0374 15.5593 12.4874 15.3343 12.8249Z" fill="white"/>
</svg>
